<?xml version="1.0" encoding="UTF-8"?>
<svg version="1.1" xmlns="http://www.w3.org/2000/svg" width="1024" height="1024">
<path d="M0 0 C40.61741895 -0.63964439 80.00355002 6.73385497 118.22070312 20.14648438 C122.4757386 21.59568408 126.77537472 22.87917634 131.09375 24.125 C131.09375 24.785 131.09375 25.445 131.09375 26.125 C132.24875 26.455 133.40375 26.785 134.59375 27.125 C142.11706926 29.64060988 149.07120099 33.4809429 156.09375 37.125 C157.18743896 37.68743408 157.18743896 37.68743408 158.30322266 38.26123047 C167.17250326 42.82776688 175.81666689 47.53542819 184.09375 53.125 C184.69010254 53.52444824 185.28645508 53.92389648 185.90087891 54.33544922 C199.03690296 63.15054175 211.44216997 72.39592029 223.09375 83.125 C224.46424887 84.33843615 225.83901042 85.54708141 227.21875 86.75 C227.85941406 87.31074219 228.50007812 87.87148438 229.16015625 88.44921875 C230.47225454 89.5863706 231.7929168 90.71370114 233.12109375 91.83203125 C237.1547125 95.2617685 240.71937202 98.81718609 244.13671875 102.859375 C246.42074715 105.50355957 248.82027547 108.02171366 251.21875 110.5625 C265.7215402 126.2197787 278.07809026 144.26341972 288.24121094 163.00024414 C289.61101617 165.52553358 290.94052169 167.92931083 292.71484375 170.1953125 C294.49631049 172.68835661 295.16208656 175.21130353 296.09375 178.125 C297.1323403 180.34467848 298.19721314 182.55215868 299.28125 184.75 C303.68097474 193.9255737 306.88360572 203.48290805 310.09375 213.125 C310.34962891 213.89102539 310.60550781 214.65705078 310.86914062 215.44628906 C311.97033208 218.74550515 313.06576988 222.04619977 314.1484375 225.3515625 C314.9955854 228.04095473 314.9955854 228.04095473 316.09375 230.125 C316.42708333 232.125 316.76041667 234.125 317.09375 236.125 C317.42375 236.785 317.75375 237.445 318.09375 238.125 C318.33337163 240.202434 318.56835068 242.28049746 318.78125 244.36083984 C319.52096028 250.90380844 320.62347088 257.40624434 321.6328125 263.91210938 C323.63934833 277.14176913 324.28027374 290.08849655 324.27905273 303.44873047 C324.28122314 306.09229036 324.29939642 308.7354206 324.31835938 311.37890625 C324.35836797 323.40561607 323.56249449 335.19043737 322.09375 347.125 C321.95831787 348.23085449 321.82288574 349.33670898 321.68334961 350.47607422 C315.79571414 394.51756146 298.87313186 438.73828413 272.67578125 474.75390625 C270.90874453 476.92720938 270.90874453 476.92720938 271.09375 479.125 C269.44174095 480.80619649 267.77212858 482.47012813 266.09375 484.125 C264.5208445 486.10052636 262.9806439 488.10239946 261.46875 490.125 C257.40406286 495.5075015 253.15734904 500.69584679 248.76123047 505.81054688 C246.88857468 507.99150153 245.07267952 510.1545376 243.40234375 512.49609375 C242.97050781 513.03363281 242.53867187 513.57117188 242.09375 514.125 C241.43375 514.125 240.77375 514.125 240.09375 514.125 C239.84882812 514.69605469 239.60390625 515.26710938 239.3515625 515.85546875 C235.31962284 523.13049031 227.37630633 528.77883855 221.09375 534.125 C220.19527344 534.91261719 219.29679688 535.70023438 218.37109375 536.51171875 C203.36242422 549.57788916 187.11470399 560.85126521 170.09375 571.125 C169.46130371 571.50881836 168.82885742 571.89263672 168.17724609 572.28808594 C143.55871041 587.125 143.55871041 587.125 137.09375 587.125 C136.76375 587.785 136.43375 588.445 136.09375 589.125 C113.87622854 599.25406434 89.03697541 605.78051716 65.09375 610.125 C63.94712891 610.33527832 62.80050781 610.54555664 61.61914062 610.76220703 C43.34912055 613.94409277 25.29237083 614.49099134 6.78125 614.5 C5.15461426 614.50299103 5.15461426 614.50299103 3.49511719 614.50604248 C-8.75181879 614.50349026 -20.77772926 614.07137018 -32.93432617 612.54931641 C-36.66437566 612.15083918 -40.16572899 612.04826822 -43.90625 612.125 C-43.90625 611.465 -43.90625 610.805 -43.90625 610.125 C-44.48963135 610.08181641 -45.0730127 610.03863281 -45.67407227 609.99414062 C-83.53253692 606.75220984 -121.5415398 590.30834798 -153.90625 571.125 C-154.68339355 570.66689941 -155.46053711 570.20879883 -156.26123047 569.73681641 C-187.92746361 550.88646409 -217.39785506 525.74488455 -240.21875 496.75 C-242.05190249 494.42344497 -243.81187552 492.21937448 -245.90625 490.125 C-246.76309271 488.91210441 -247.59236098 487.67962713 -248.40625 486.4375 C-250.29389063 483.56261874 -252.1952923 480.70231993 -254.13671875 477.86328125 C-259.0453131 470.66811161 -263.6506681 463.34222642 -268.03125 455.8125 C-268.7596106 454.56654053 -268.7596106 454.56654053 -269.50268555 453.29541016 C-270.17037964 452.13404541 -270.17037964 452.13404541 -270.8515625 450.94921875 C-271.24875488 450.25916748 -271.64594727 449.56911621 -272.05517578 448.8581543 C-272.90625 447.125 -272.90625 447.125 -272.90625 445.125 C-273.89625 445.125 -274.88625 445.125 -275.90625 445.125 C-275.98875 444.3 -276.07125 443.475 -276.15625 442.625 C-276.95062889 438.9178985 -278.26810049 436.16160195 -280.06640625 432.859375 C-280.90625 431.125 -280.90625 431.125 -280.90625 429.125 C-281.56625 428.795 -282.22625 428.465 -282.90625 428.125 C-283.62617729 426.14354873 -284.2744953 424.13630068 -284.90625 422.125 C-285.57077042 420.34001084 -286.24640281 418.55914081 -286.9296875 416.78125 C-297.90625 388.07636292 -297.90625 388.07636292 -297.90625 381.125 C-298.89625 381.125 -299.88625 381.125 -300.90625 381.125 C-300.83277344 379.32675781 -300.83277344 379.32675781 -300.7578125 377.4921875 C-300.76036328 370.94943761 -302.09966743 364.66377402 -303.28125 358.25 C-312.54744422 305.84474889 -308.58632444 251.37472078 -291.22900391 201.06225586 C-289.86502523 197.10472648 -288.55553406 193.27700073 -287.90625 189.125 C-287.24625 189.125 -286.58625 189.125 -285.90625 189.125 C-285.74624512 188.59422852 -285.58624023 188.06345703 -285.42138672 187.51660156 C-275.61529432 156.44712669 -254.21304033 127.40478441 -231.90625 104.125 C-230.33438482 102.42527976 -228.77107657 100.71758297 -227.21875 99 C-226.57550781 98.29617188 -225.93226563 97.59234375 -225.26953125 96.8671875 C-223.70082978 95.23118306 -223.70082978 95.23118306 -223.90625 93.125 C-222.24441023 92.11699883 -220.5765347 91.11894507 -218.90625 90.125 C-216.96519943 88.42555119 -215.0847128 86.71430208 -213.21875 84.9375 C-207.97466817 80.05436304 -202.61253744 75.468036 -196.90625 71.125 C-196.25301758 70.62629395 -195.59978516 70.12758789 -194.92675781 69.61376953 C-133.76518248 23.125 -133.76518248 23.125 -111.90625 23.125 C-111.57625 22.465 -111.24625 21.805 -110.90625 21.125 C-109.09130859 20.4140625 -109.09130859 20.4140625 -106.6796875 19.75 C-105.7731543 19.49347656 -104.86662109 19.23695313 -103.93261719 18.97265625 C-102.93391602 18.69292969 -101.93521484 18.41320312 -100.90625 18.125 C-98.75148788 17.48290087 -96.59788529 16.83690084 -94.4453125 16.1875 C-92.14068838 15.49978756 -89.83599987 14.81229088 -87.53125 14.125 C-86.38914062 13.78210938 -85.24703125 13.43921875 -84.0703125 13.0859375 C-63.27471052 6.89451964 -63.27471052 6.89451964 -56.90625 7.125 C-56.90625 6.465 -56.90625 5.805 -56.90625 5.125 C-56.30683594 5.08761719 -55.70742188 5.05023438 -55.08984375 5.01171875 C-48.93631523 4.56530345 -42.86006736 3.87012493 -36.7487793 3.03173828 C-24.47299738 1.34918356 -12.37487302 0.39599594 0 0 Z M-299.90625 377.125 C-298.90625 380.125 -298.90625 380.125 -298.90625 380.125 Z " fill="#21D988" transform="translate(503.90625,170.875)"/>
<path d="M0 0 C2.07329333 -0.00217124 4.14603961 -0.02034296 6.21923828 -0.03930664 C15.45096573 -0.07908556 24.34204012 0.7062137 33.47314453 2.18530273 C34.51164551 2.35167236 35.55014648 2.51804199 36.62011719 2.68945312 C74.75122854 9.13841875 109.72593015 25.14786676 138.47314453 51.18530273 C139.45798828 52.05026367 140.44283203 52.91522461 141.45751953 53.80639648 C146.89481913 58.6338368 151.87726273 63.55674303 156.47314453 69.18530273 C156.90208008 69.69657715 157.33101562 70.20785156 157.77294922 70.73461914 C165.58331749 80.04942193 172.38376944 89.66568664 178.47314453 100.18530273 C178.86099121 100.84723633 179.24883789 101.50916992 179.6484375 102.19116211 C196.13404354 130.64179292 202.91012899 162.02896575 202.84814453 194.62280273 C202.84826538 195.59752533 202.84838623 196.57224792 202.84851074 197.57650757 C202.82268371 212.19415713 202.04389902 225.95370879 198.47314453 240.18530273 C198.18960129 241.49181931 197.90944775 242.7990779 197.63330078 244.10717773 C190.20744084 276.00073288 171.77084752 303.64857674 149.91064453 327.43530273 C149.39268311 328.0018457 148.87472168 328.56838867 148.34106445 329.15209961 C118.21094243 361.49468871 75.49830327 380.86498649 32.47314453 388.18530273 C31.19697266 388.41217773 29.92080078 388.63905273 28.60595703 388.87280273 C8.33167489 391.95895139 -12.41620875 390.76217216 -32.52685547 387.18530273 C-33.32462402 387.05140137 -34.12239258 386.9175 -34.94433594 386.77954102 C-69.65404203 380.85454463 -103.39341781 364.75442039 -129.52685547 341.18530273 C-130.85954358 340.05953847 -132.19279921 338.93444538 -133.52685547 337.81030273 C-143.99817828 328.52940399 -153.30228263 318.50377821 -161.52685547 307.18530273 C-161.94531738 306.61118652 -162.3637793 306.03707031 -162.79492188 305.44555664 C-185.2193227 274.25437875 -197.99343828 236.76242547 -197.78759766 198.30981445 C-197.77692937 195.95163902 -197.78753294 193.59423574 -197.80029297 191.23608398 C-197.81446575 177.16845926 -197.00406761 162.95260652 -193.33935547 149.31030273 C-193.12577393 148.49134521 -192.91219238 147.6723877 -192.69213867 146.82861328 C-183.64630446 113.18811461 -167.55492588 85.23871919 -143.52685547 60.18530273 C-142.63095703 59.23655273 -141.73505859 58.28780273 -140.81201172 57.31030273 C-109.48364949 24.92386073 -66.73255085 6.73379368 -22.52685547 1.18530273 C-21.85509277 1.08886475 -21.18333008 0.99242676 -20.49121094 0.89306641 C-13.6833417 -0.00700861 -6.85592718 -0.00079962 0 0 Z " fill="#015830" transform="translate(509.52685546875,279.814697265625)"/>
<path d="M0 0 C10.89 0 21.78 0 33 0 C33.33 8.91 33.66 17.82 34 27 C36.18625 27.515625 38.3725 28.03125 40.625 28.5625 C58.19110538 33.08093234 73.99544296 43.19008612 83.42578125 58.953125 C86.6215398 64.48747438 89.78617111 69.98770681 92 76 C81.39369874 80.48396476 70.69822785 84.74134342 60 89 C57.60502238 86.69342069 56.10206971 84.58299296 54.5625 81.625 C48.46337736 70.48825394 39.95450177 65.67106747 28 62 C27.38640625 61.80664062 26.7728125 61.61328125 26.140625 61.4140625 C13.74032731 59.01546477 0.82808665 61.28340922 -10 67.6875 C-14.50402583 71.02197216 -17.33224836 74.61989735 -19 80 C-20.12325703 88.09346809 -19.34240387 95.03291531 -15 102 C-14.63390625 102.60199219 -14.2678125 103.20398438 -13.890625 103.82421875 C-5.46970034 115.3899949 11.97000648 119.92054357 24.8125 124.5 C34.80387738 128.08500249 44.71943459 131.68926035 54.3359375 136.203125 C55.01183426 136.52003296 55.68773102 136.83694092 56.3841095 137.16345215 C75.69751719 146.46596883 90.07053257 160.97772896 97.5 181.125 C101.80011938 196.86650843 99.57720288 214.15975675 92.4375 228.6875 C82.86748283 244.78905389 67.51132261 255.91765753 49.5703125 260.96484375 C44.12113326 262.30551483 39.67491813 263 34 263 C34 272.9 34 282.8 34 293 C22.78 293 11.56 293 0 293 C0 283.1 0 273.2 0 263 C-2.64 262.67 -5.28 262.34 -8 262 C-23.90013583 257.83116699 -36.49014593 250.64566356 -48 239 C-48.66773438 238.34257813 -49.33546875 237.68515625 -50.0234375 237.0078125 C-57.84647728 228.75999228 -67 214.58844312 -67 203 C-55.03010723 199.54791129 -43.05395003 196.14772889 -31 193 C-30.59910156 193.89460937 -30.19820313 194.78921875 -29.78515625 195.7109375 C-22.95328845 210.44585764 -13.68250834 220.30432275 1.640625 226.23828125 C7.95435599 228.27665466 14.11292874 228.21794846 20.6875 228.25 C21.72583984 228.270625 22.76417969 228.29125 23.83398438 228.3125 C34.6798636 228.36689939 44.39980634 225.86831301 53 219 C59.16245185 211.80005625 60.45350852 205.72388442 60.328125 196.3828125 C59.5922924 188.7967288 56.02041366 183.6449619 50.6875 178.375 C38.24982607 168.16863001 22.53979983 163.4800488 7.5 158.5 C-26.72634442 147.16681289 -26.72634442 147.16681289 -39 136 C-39.69480469 135.37351562 -40.38960938 134.74703125 -41.10546875 134.1015625 C-53.04954051 122.76253753 -58.76887627 108.92802305 -59.33666992 92.59033203 C-59.61675706 75.48896067 -54.10536985 60.708008 -42.28125 48.15625 C-31.11630265 37.60308058 -15.818707 28 0 28 C0 18.76 0 9.52 0 0 Z " fill="#21DC8A" transform="translate(497,324)"/>
<path d="M0 0 C3.78886817 0.60020833 6.73823011 1.70391322 10.1328125 3.4765625 C11.09823975 3.97873291 12.06366699 4.48090332 13.05834961 4.99829102 C14.07034424 5.53510498 15.08233887 6.07191895 16.125 6.625 C17.16599854 7.17406006 18.20699707 7.72312012 19.27954102 8.28881836 C26.07024309 11.90053065 32.66330022 15.63243668 39 20 C40.24823523 20.83923026 41.49697663 21.67770792 42.74609375 22.515625 C55.20794187 30.92539713 66.9285797 39.80514654 78 50 C79.37049887 51.21343615 80.74526042 52.42208141 82.125 53.625 C82.76566406 54.18574219 83.40632812 54.74648438 84.06640625 55.32421875 C85.37850454 56.4613706 86.6991668 57.58870114 88.02734375 58.70703125 C92.0609625 62.1367685 95.62562202 65.69218609 99.04296875 69.734375 C101.32699715 72.37855957 103.72652547 74.89671366 106.125 77.4375 C120.6277902 93.0947787 132.98434026 111.13841972 143.14746094 129.87524414 C144.90112496 133.10819225 146.68816663 136.1336147 149 139 C148.34 139.99 147.68 140.98 147 142 C146.44054687 140.94425781 145.88109375 139.88851562 145.3046875 138.80078125 C133.24207153 116.3859585 118.55197665 96.2671274 102 77 C101.38898438 76.27554688 100.77796875 75.55109375 100.1484375 74.8046875 C73.27529657 42.97035132 36.29733905 20.38124896 0 1 C0 0.67 0 0.34 0 0 Z " fill="#1CC072" transform="translate(649,204)"/>
<path d="M0 0 C3.59124604 3.45165697 6.63321883 6.99761716 9.625 11 C17.13449765 20.91054197 25.02843087 30.36912336 34 39 C36.56998768 41.54895668 39.11250783 44.11703497 41.62109375 46.7265625 C48.34457115 53.68452417 55.42520994 59.79010485 63.15380859 65.60253906 C65.02043079 67.01546493 66.86466494 68.45406862 68.70703125 69.8984375 C95.190074 90.46772525 124.77843997 105.19042647 156 117 C156 117.33 156 117.66 156 118 C151.2247248 118.27784071 148.00107737 117.46602299 143.625 115.578125 C143.02726273 115.32234177 142.42952545 115.06655853 141.81367493 114.80302429 C139.86979907 113.9650621 137.93456945 113.10921013 136 112.25 C135.0007399 111.81133102 135.0007399 111.81133102 133.98129272 111.36380005 C121.60047929 105.91908817 109.65238107 99.88008265 98 93 C97.19594727 92.52771973 96.39189453 92.05543945 95.56347656 91.56884766 C63.92305359 72.78677321 34.46712541 47.56744992 11.6875 18.625 C9.85434751 16.29844497 8.09437448 14.09437448 6 12 C4.93097837 10.54048083 3.89209842 9.05866652 2.875 7.5625 C2.33617187 6.78003906 1.79734375 5.99757813 1.2421875 5.19140625 C0 3 0 3 0 0 Z " fill="#1EBF71" transform="translate(252,649)"/>
<path d="M0 0 C3.46167051 2.22386382 4.79404698 4.11240911 6.296875 7.91796875 C6.89350952 9.41251587 6.89350952 9.41251587 7.50219727 10.93725586 C7.91397217 12.00983643 8.32574707 13.08241699 8.75 14.1875 C9.18175537 15.28779541 9.61351074 16.38809082 10.05834961 17.52172852 C14.19506215 28.207539 17.833501 39.05070284 21.31079102 49.96655273 C21.95959618 52.03288909 21.95959618 52.03288909 23 54 C23.33333333 56 23.66666667 58 24 60 C24.33 60.66 24.66 61.32 25 62 C25.23962163 64.077434 25.47460068 66.15549746 25.6875 68.23583984 C26.42721028 74.77880844 27.52972088 81.28124434 28.5390625 87.78710938 C30.5679931 101.16442416 31.18651523 114.25355339 31.18530273 127.76318359 C31.18749568 130.4946233 31.20573346 133.22566223 31.22460938 135.95703125 C31.25315272 145.15865344 31.04278384 153.97240004 29 163 C28.67 163 28.34 163 28 163 C28.00666183 162.44465576 28.01332367 161.88931152 28.02018738 161.31713867 C28.6380946 107.25214782 26.27570061 53.97214169 1.2734375 4.58984375 C0 2 0 2 0 0 Z " fill="#1EBF71" transform="translate(797,347)"/>
<path d="M0 0 C0.33 0 0.66 0 1 0 C2.1877249 5.00541209 3.16032262 9.94731713 3.87109375 15.04296875 C4.88376524 21.70565201 6.4042876 28.13042566 8.1875 34.625 C8.49719727 35.75599121 8.80689453 36.88698242 9.12597656 38.05224609 C16.10297175 63.00896495 26.58517249 87.39721187 40.3515625 109.375 C40.95049316 110.33188721 41.54942383 111.28877441 42.16650391 112.2746582 C43.37570626 114.19569592 44.59395761 116.11107145 45.82177734 118.02026367 C46.37559082 118.89400635 46.9294043 119.76774902 47.5 120.66796875 C48.0053125 121.45453857 48.510625 122.2411084 49.03125 123.05151367 C49.3509375 123.69451416 49.670625 124.33751465 50 125 C49.67 125.66 49.34 126.32 49 127 C43.24732216 119.77227656 38.64309816 111.96230296 34 104 C33.61618164 103.35562988 33.23236328 102.71125977 32.83691406 102.04736328 C30 97.22560741 30 97.22560741 30 95 C29.01 95 28.02 95 27 95 C26.87625 93.7625 26.87625 93.7625 26.75 92.5 C25.95562111 88.7928985 24.63814951 86.03660195 22.83984375 82.734375 C22 81 22 81 22 79 C21.34 78.67 20.68 78.34 20 78 C19.28007271 76.01854873 18.6317547 74.01130068 18 72 C17.33547958 70.21501084 16.65984719 68.43414081 15.9765625 66.65625 C5 37.95136292 5 37.95136292 5 31 C4.01 31 3.02 31 2 31 C2.04125 29.72125 2.0825 28.4425 2.125 27.125 C2.13583641 23.6519295 1.77822993 20.56896386 1 17.1875 C-0.28228813 11.4533242 -0.18086895 5.84809594 0 0 Z M3 27 C4 30 4 30 4 30 Z " fill="#1EBE70" transform="translate(201,521)"/>
<path d="M0 0 C0.99 0.33 1.98 0.66 3 1 C2.25278687 1.73150269 2.25278687 1.73150269 1.49047852 2.4777832 C-11.92599787 15.63450685 -11.92599787 15.63450685 -24 30 C-25.15435547 31.44632812 -25.15435547 31.44632812 -26.33203125 32.921875 C-44.98418201 56.40015857 -59.71933217 82.84170498 -70 111 C-70.66074955 112.66902135 -71.32551848 114.33648057 -72 116 C-72.33 116 -72.66 116 -73 116 C-72.45033703 110.77820176 -71.7243411 105.97015965 -70 101 C-69.01 100.505 -69.01 100.505 -68 100 C-67.26242319 98.23095314 -67.26242319 98.23095314 -66.6796875 96.078125 C-57.16285402 65.97118863 -35.58523219 37.52675281 -14 15 C-12.42813482 13.30027976 -10.86482657 11.59258297 -9.3125 9.875 C-8.66925781 9.17117188 -8.02601563 8.46734375 -7.36328125 7.7421875 C-5.79457978 6.10618306 -5.79457978 6.10618306 -6 4 C-4.36368108 2.95107762 -2.69514137 1.95093297 -1 1 C-0.67 0.67 -0.34 0.34 0 0 Z " fill="#1EBF72" transform="translate(286,260)"/>
<path d="M0 0 C0.33 0 0.66 0 1 0 C0.52117875 7.25196544 -1.80075872 13.25503159 -4.5625 19.9375 C-5.0150415 21.04561035 -5.46758301 22.1537207 -5.93383789 23.29541016 C-14.14904402 43.23236576 -23.7006585 62.14538866 -36.41796875 79.62890625 C-38.18500547 81.80220938 -38.18500547 81.80220938 -38 84 C-39.11584028 85.08097027 -40.23443966 86.15917647 -41.36328125 87.2265625 C-44.34587619 90.45830022 -46.7346259 94.15700154 -49.23046875 97.76953125 C-49.81441406 98.50558594 -50.39835938 99.24164062 -51 100 C-51.66 100 -52.32 100 -53 100 C-51.69741339 97.24200512 -50.25134975 94.8449569 -48.41796875 92.41015625 C-47.90476074 91.71946045 -47.39155273 91.02876465 -46.86279297 90.31713867 C-46.03352295 89.20109253 -46.03352295 89.20109253 -45.1875 88.0625 C-25.4197567 61.00419179 -10.75971163 31.68437695 0 0 Z " fill="#1DBC6D" transform="translate(813,566)"/>
<path d="M0 0 C-4.20626485 2.37080382 -8.41780744 4.71162716 -12.71484375 6.9140625 C-32.89894098 17.29819514 -52.72615536 29.6180663 -69.58105469 44.92041016 C-71 46 -71 46 -73 46 C-73 46.66 -73 47.32 -73 48 C-74.96875 49.7265625 -74.96875 49.7265625 -77.5 51.625 C-78.3353125 52.25664062 -79.170625 52.88828125 -80.03125 53.5390625 C-80.6809375 54.02117187 -81.330625 54.50328125 -82 55 C-82 52 -82 52 -80.05078125 49.87109375 C-72.95584444 43.56560783 -65.64764946 37.62623525 -58 32 C-57.36852051 31.53335938 -56.73704102 31.06671875 -56.08642578 30.5859375 C-41.90158145 20.1658407 -26.93831506 11.12319672 -11.5 2.6875 C-10.80003906 2.29602783 -10.10007812 1.90455566 -9.37890625 1.5012207 C-5.76895338 -0.42393857 -3.89850796 -1.28831841 0 0 Z " fill="#1EC173" transform="translate(373,204)"/>
<path d="M0 0 C-1.30124357 2.93919176 -2.56719902 4.75949767 -5.0625 6.77734375 C-5.68495605 7.28410645 -6.30741211 7.79086914 -6.94873047 8.31298828 C-7.62564941 8.84907715 -8.30256836 9.38516602 -9 9.9375 C-9.70914551 10.50452637 -10.41829102 11.07155273 -11.14892578 11.65576172 C-24.19813516 21.9952992 -37.68923441 31.37608005 -52.02978516 39.83349609 C-53.76218669 40.85919802 -55.48179376 41.90644527 -57.19921875 42.95703125 C-63.01670387 46.47291926 -68.98746622 49.52862814 -75.125 52.4375 C-75.87273682 52.79223389 -76.62047363 53.14696777 -77.39086914 53.51245117 C-82.74443973 56 -82.74443973 56 -85 56 C-85.33 56.66 -85.66 57.32 -86 58 C-87.65 58 -89.3 58 -91 58 C-89.74186265 55.4837253 -88.87244361 55.3343221 -86.31640625 54.265625 C-85.17957397 53.78005127 -85.17957397 53.78005127 -84.01977539 53.28466797 C-83.20887451 52.94322754 -82.39797363 52.60178711 -81.5625 52.25 C-75.54338396 49.64959105 -69.83236811 46.95021647 -64.28515625 43.4296875 C-61.74359672 41.83958359 -59.1412384 40.41796665 -56.5 39 C-37.49397075 28.68850017 -19.46340579 16.17526219 -3.671875 1.36328125 C-2 0 -2 0 0 0 Z " fill="#1DC070" transform="translate(726,702)"/>
<path d="M0 0 C5.46678947 0.44705247 10.90913322 0.95214931 16.33984375 1.72973633 C31.91691002 3.95181727 47.28029116 4.53703591 63 4.6875 C65.44402726 4.72079074 67.88803836 4.75529046 70.33203125 4.79101562 C76.22124193 4.87454059 82.11047179 4.94342595 88 5 C87.67 5.66 87.34 6.32 87 7 C80.08474982 7.05146656 73.16955047 7.08604828 66.25415039 7.10986328 C63.91038162 7.11981014 61.56662488 7.1333724 59.22290039 7.15087891 C46.33491915 7.24460968 33.69532479 7.08157444 20.90161133 5.43310547 C17.19246204 5.0213646 13.72125684 4.92264512 10 5 C10 4.34 10 3.68 10 3 C6.7 2.67 3.4 2.34 0 2 C0 1.34 0 0.68 0 0 Z " fill="#1BC070" transform="translate(450,778)"/>
<path d="M0 0 C10.89 0 21.78 0 33 0 C33 9.24 33 18.48 33 28 C32.67 28 32.34 28 32 28 C32 19.42 32 10.84 32 2 C22.1 2 12.2 2 2 2 C2 10.58 2 19.16 2 28 C0.68 28.33 -0.64 28.66 -2 29 C-1.34 28.67 -0.68 28.34 0 28 C0 18.76 0 9.52 0 0 Z " fill="#2AF3A5" transform="translate(497,324)"/>
<path d="M0 0 C0.66 0 1.32 0 2 0 C1.93941406 1.19367188 1.87882813 2.38734375 1.81640625 3.6171875 C0.9631243 21.07083808 0.47844495 38.53291313 0 56 C-0.99 56.495 -0.99 56.495 -2 57 C-2.05033329 51.77540409 -2.08614875 46.55095654 -2.10986328 41.32617188 C-2.11977398 39.55759211 -2.13330643 37.78902804 -2.15087891 36.02050781 C-2.26847601 23.85958349 -1.62533167 12.05530674 0 0 Z " fill="#1CBD6E" transform="translate(199,427)"/>
<path d="M0 0 C-6.72055843 2.79274724 -13.42697844 4.26264939 -20.5625 5.625 C-21.66013672 5.8415625 -22.75777344 6.058125 -23.88867188 6.28125 C-31.97386492 7.86027504 -39.6700027 9.13566369 -47.9375 9.0625 C-48.62134766 9.05798828 -49.30519531 9.05347656 -50.00976562 9.04882812 C-51.67321604 9.0371956 -53.3366205 9.01926694 -55 9 C-52.09455971 7.37634726 -49.72362644 6.67278186 -46.421875 6.32421875 C-45.51928955 6.22077148 -44.6167041 6.11732422 -43.68676758 6.01074219 C-42.71763428 5.90407227 -41.74850098 5.79740234 -40.75 5.6875 C-30.92904231 4.52977368 -21.35518414 2.7565527 -11.71972656 0.5378418 C-10.76678711 0.32426025 -9.81384766 0.11067871 -8.83203125 -0.109375 C-7.99389893 -0.30499023 -7.1557666 -0.50060547 -6.29223633 -0.70214844 C-3.88054106 -1.01552241 -2.29417488 -0.7507609 0 0 Z " fill="#1DC272" transform="translate(595,774)"/>
<path d="M0 0 C17.17204145 -0.47847794 36.52034401 -0.61871441 53 5 C53.495 5.99 53.495 5.99 54 7 C45.2625301 6.45508252 36.63106591 5.32493949 27.95849609 4.16357422 C18.65615685 2.92861633 9.33753539 1.92612661 0 1 C0 0.67 0 0.34 0 0 Z " fill="#1EC475" transform="translate(524,173)"/>
<path d="M0 0 C0.33 0.66 0.66 1.32 1 2 C0.39671875 2.73605469 -0.2065625 3.47210937 -0.828125 4.23046875 C-1.62734375 5.20628906 -2.4265625 6.18210937 -3.25 7.1875 C-4.03890625 8.15042969 -4.8278125 9.11335937 -5.640625 10.10546875 C-7.1837178 11.9985677 -8.69588205 13.91741285 -10.171875 15.86328125 C-10.77515625 16.56839844 -11.3784375 17.27351562 -12 18 C-12.66 18 -13.32 18 -14 18 C-14.35964844 18.84884766 -14.35964844 18.84884766 -14.7265625 19.71484375 C-16.26360143 22.47302711 -18.12343118 24.3520728 -20.375 26.5625 C-21.14585937 27.32691406 -21.91671875 28.09132813 -22.7109375 28.87890625 C-24.72713289 30.74715556 -26.76606163 32.40360112 -29 34 C-29.66 33.67 -30.32 33.34 -31 33 C-30.410979 32.42145264 -29.82195801 31.84290527 -29.21508789 31.24682617 C-26.97985878 29.04619067 -24.74955588 26.84069888 -22.5222168 24.63208008 C-21.10370567 23.22827838 -19.67985854 21.82987502 -18.25585938 20.43164062 C-12.03401068 14.25345403 -6.45144169 7.85893079 -1 1 C-0.67 0.67 -0.34 0.34 0 0 Z " fill="#1EBE6F" transform="translate(758,667)"/>
<path d="M0 0 C0 0.66 0 1.32 0 2 C-4.04124206 3.45951184 -8.08306782 4.91740056 -12.125 6.375 C-13.83816406 6.99375 -13.83816406 6.99375 -15.5859375 7.625 C-16.69453125 8.02460937 -17.803125 8.42421875 -18.9453125 8.8359375 C-20.46922607 9.38580322 -20.46922607 9.38580322 -22.02392578 9.94677734 C-23.00603027 10.29434082 -23.98813477 10.6419043 -25 11 C-26.03495605 11.37205566 -27.06991211 11.74411133 -28.13623047 12.12744141 C-31.52475165 13.15988597 -34.47778327 13.14088867 -38 13 C-35.82424911 10.82424911 -34.78294461 10.48109286 -31.88671875 9.66796875 C-30.64136353 9.30952881 -30.64136353 9.30952881 -29.37084961 8.94384766 C-28.48534424 8.69425293 -27.59983887 8.4446582 -26.6875 8.1875 C-19.42678187 6.08846992 -12.42190453 3.77264713 -5.43359375 0.8828125 C-3 0 -3 0 0 0 Z " fill="#1EC171" transform="translate(634,760)"/>
<path d="M0 0 C4.455 0.99 4.455 0.99 9 2 C9 2.66 9 3.32 9 4 C9.66515625 4.24363281 10.3303125 4.48726563 11.015625 4.73828125 C14.74338623 6.31428501 18.22369022 8.2074754 21.75 10.1875 C22.45576172 10.58316162 23.16152344 10.97882324 23.88867188 11.38647461 C29.30426285 14.48029879 34.27293269 17.91633907 39 22 C35.64374571 22 34.86840953 21.49417841 32.1484375 19.69140625 C31.38700439 19.19543945 30.62557129 18.69947266 29.84106445 18.18847656 C29.02726318 17.6519043 28.21346191 17.11533203 27.375 16.5625 C18.50731279 10.8235279 9.41596586 5.77429255 0 1 C0 0.67 0 0.34 0 0 Z " fill="#2CEDAD" transform="translate(595,296)"/>
<path d="M0 0 C0.72243896 -0.00064453 1.44487793 -0.00128906 2.18920898 -0.00195312 C5.28462985 0.03050214 7.7301654 0.2017218 10.6875 1.1875 C10.6875 1.8475 10.6875 2.5075 10.6875 3.1875 C-1.1925 3.1875 -13.0725 3.1875 -25.3125 3.1875 C-25.3125 2.8575 -25.3125 2.5275 -25.3125 2.1875 C-16.86504655 0.91412882 -8.55339841 -0.00741276 0 0 Z " fill="#1CC172" transform="translate(509.3125,170.8125)"/>
<path d="M0 0 C0.33 0 0.66 0 1 0 C1.3764668 7.521493 0.02325959 13.83982783 -2 21.0625 C-2.28617188 22.11888672 -2.57234375 23.17527344 -2.8671875 24.26367188 C-3.5681024 26.84537508 -4.27918676 29.4237956 -5 32 C-5.66 32 -6.32 32 -7 32 C-6.32646876 24.97481339 -4.69695944 18.3255596 -2.9375 11.5 C-2.65583984 10.39140625 -2.37417969 9.2828125 -2.08398438 8.140625 C-1.39361604 5.4259563 -0.69885625 2.71249362 0 0 Z " fill="#1EC071" transform="translate(821,533)"/>
<path d="M0 0 C2.59973915 2.49574958 4.94009252 5.11579701 7.25 7.875 C13.02244213 14.47207673 18.29971974 18.44637853 27 20 C27 20.66 27 21.32 27 22 C28.65 22.33 30.3 22.66 32 23 C32 23.33 32 23.66 32 24 C20.49754858 23.37259356 12.8750659 17.0259818 5 9 C0 3.06950673 0 3.06950673 0 0 Z " fill="#01210D" transform="translate(471,527)"/>
<path d="M0 0 C0.66 0 1.32 0 2 0 C2 8.58 2 17.16 2 26 C3.65 26.33 5.3 26.66 7 27 C7 27.33 7 27.66 7 28 C5.00045254 28.04254356 2.99958364 28.04080783 1 28 C0 27 0 27 -0.11352539 24.40795898 C-0.10828857 23.28204346 -0.10305176 22.15612793 -0.09765625 20.99609375 C-0.09443359 19.78115234 -0.09121094 18.56621094 -0.08789062 17.31445312 C-0.07951172 16.03505859 -0.07113281 14.75566406 -0.0625 13.4375 C-0.05798828 12.15423828 -0.05347656 10.87097656 -0.04882812 9.54882812 C-0.03699545 6.36583978 -0.02051068 3.18294238 0 0 Z " fill="#023B19" transform="translate(530,324)"/>
<path d="M0 0 C2.04348237 3.39863383 2.29835885 6.14420103 2.4140625 10.078125 C2.45273438 11.23828125 2.49140625 12.3984375 2.53125 13.59375 C2.57765625 15.40359375 2.57765625 15.40359375 2.625 17.25 C2.66367188 18.47203125 2.70234375 19.6940625 2.7421875 20.953125 C2.83642108 23.9685994 2.92203455 26.98406828 3 30 C2.34 30 1.68 30 1 30 C-0.13955862 23.67410373 -0.1142637 17.47721662 -0.0625 11.0625 C-0.05798828 9.99708984 -0.05347656 8.93167969 -0.04882812 7.83398438 C-0.03711787 5.22259709 -0.02071724 2.61132876 0 0 Z " fill="#1DBE70" transform="translate(198,490)"/>
<path d="M0 0 C4.02992782 0.55312735 8.02022924 1.1558062 12 2 C12 2.66 12 3.32 12 4 C12.60328125 4.17015625 13.2065625 4.3403125 13.828125 4.515625 C18.51063372 5.93548248 21.85311149 7.03218406 25 11 C19.24894734 9.18387811 13.6139627 7.13604033 8 4.9375 C6.9934436 4.55150635 6.9934436 4.55150635 5.96655273 4.15771484 C1.11688291 2.23376582 1.11688291 2.23376582 0 0 Z " fill="#1FC375" transform="translate(623,193)"/>
<path d="M0 0 C-2.66462377 2.66462377 -5.68608182 3.42242471 -9.1875 4.5625 C-9.83525391 4.78357422 -10.48300781 5.00464844 -11.15039062 5.23242188 C-15.43047197 6.64771351 -19.52146817 7.48302292 -24 8 C-23.34 7.67 -22.68 7.34 -22 7 C-22 6.34 -22 5.68 -22 5 C-19.46148538 4.15583837 -16.91989146 3.32452701 -14.375 2.5 C-13.66214844 2.26152344 -12.94929688 2.02304688 -12.21484375 1.77734375 C-8.00693976 0.42618192 -4.47763202 -0.28250044 0 0 Z " fill="#1DC374" transform="translate(422,185)"/>
<path d="M0 0 C0.96484375 2.14453125 0.96484375 2.14453125 1.9375 4.8125 C3.22811165 8.34992545 4.61004499 11.07894387 7 14 C6.67 14.66 6.34 15.32 6 16 C5.03576974 14.60823368 4.07888398 13.2113777 3.125 11.8125 C2.59132813 11.03519531 2.05765625 10.25789062 1.5078125 9.45703125 C0.01984561 7.0323391 -1.02428078 4.6666501 -2 2 C-2.81984375 2.22816406 -3.6396875 2.45632813 -4.484375 2.69140625 C-5.56203125 2.97886719 -6.6396875 3.26632812 -7.75 3.5625 C-8.81734375 3.85253906 -9.8846875 4.14257812 -10.984375 4.44140625 C-13.93209929 4.98742254 -15.21769433 4.82156762 -18 4 C-15.37764986 3.13683464 -12.75266548 2.28419221 -10.125 1.4375 C-9.37863281 1.19064453 -8.63226563 0.94378906 -7.86328125 0.68945312 C-2.2265625 -1.11328125 -2.2265625 -1.11328125 0 0 Z " fill="#2EEFAE" transform="translate(467,518)"/>
<path d="M0 0 C8.54011956 0.44947998 16.01533633 3.14908583 24 6 C24 6.66 24 7.32 24 8 C19.34232019 7.17258782 14.84882367 5.88222775 10.3125 4.5625 C9.54099609 4.34529297 8.76949219 4.12808594 7.97460938 3.90429688 C2.23506773 2.23506773 2.23506773 2.23506773 0 0 Z " fill="#1EC475" transform="translate(598,185)"/>
<path d="M0 0 C3.82412644 3.29708338 6.12448909 7.88363272 8.68359375 12.16992188 C9.71198635 13.83023922 10.84931299 15.42197452 12 17 C12.99 17 13.98 17 15 17 C15.59732819 19.76264289 16 22.16032769 16 25 C0 6.14893617 0 6.14893617 0 0 Z " fill="#012610" transform="translate(337,568)"/>
<path d="M0 0 C0.33 0 0.66 0 1 0 C1.33 5.94 1.66 11.88 2 18 C2.33 18 2.66 18 3 18 C2.67 24.6 2.34 31.2 2 38 C1.67 38 1.34 38 1 38 C0.06921053 25.31799345 -0.11185009 12.71362727 0 0 Z " fill="#2DCD83" transform="translate(196,465)"/>
<path d="M0 0 C2.475 0.495 2.475 0.495 5 1 C3.47490045 4.05019911 1.14350912 4.26959904 -2 5.4375 C-3.16917969 5.87320313 -4.33835937 6.30890625 -5.54296875 6.7578125 C-9.67545641 8.24270637 -13.8202954 9.65399343 -18 11 C-14.95403002 7.55672959 -12.12934091 5.94337402 -7.875 4.25 C-6.82054687 3.82203125 -5.76609375 3.3940625 -4.6796875 2.953125 C-2 2 -2 2 0 2 C0 1.34 0 0.68 0 0 Z " fill="#1FC475" transform="translate(392,192)"/>
<path d="M0 0 C-2.80194611 2.80194611 -5.9208254 2.92056898 -9.6875 3.5625 C-10.38294922 3.68818359 -11.07839844 3.81386719 -11.79492188 3.94335938 C-16.18443297 4.72617601 -20.58307668 5.39216652 -25 6 C-19.46591103 -0.69718564 -8.00768913 -0.47833541 0 0 Z " fill="#1EC475" transform="translate(448,179)"/>
<path d="M0 0 C0.66 0 1.32 0 2 0 C1.20365356 7.16711792 0.04006274 14.93990589 -4 21 C-4.5939348 13.42733125 -2.43286286 7.12481267 0 0 Z " fill="#1CBF71" transform="translate(209,383)"/>
<path d="M0 0 C0 0.33 0 0.66 0 1 C-2.64 1.33 -5.28 1.66 -8 2 C-8 2.33 -8 2.66 -8 3 C-13.28 3 -18.56 3 -24 3 C-24 2.34 -24 1.68 -24 1 C-15.9874678 -0.03387512 -8.07094823 -0.10466648 0 0 Z " fill="#24CB7D" transform="translate(496,172)"/>
<path d="M0 0 C-2.40342408 2.40342408 -3.26559788 2.33998969 -6.5703125 2.6328125 C-7.91416016 2.75849609 -7.91416016 2.75849609 -9.28515625 2.88671875 C-10.22230469 2.96535156 -11.15945313 3.04398438 -12.125 3.125 C-13.06988281 3.21136719 -14.01476562 3.29773438 -14.98828125 3.38671875 C-17.32492418 3.59914083 -19.6619967 3.80321542 -22 4 C-15.4514773 -1.17499781 -8.01390472 -0.11670735 0 0 Z " fill="#1CC375" transform="translate(471,175)"/>
<path d="M0 0 C5.82248856 -0.37164821 10.64814628 0.62382055 16 3 C16.66 3.66 17.32 4.32 18 5 C5.33029613 3.07289294 5.33029613 3.07289294 0 1 C0 0.67 0 0.34 0 0 Z " fill="#1EC475" transform="translate(579,180)"/>
<path d="M0 0 C0 0.66 0 1.32 0 2 C-6.1105424 2.11269443 -11.95170514 1.89604368 -18 1 C-18 0.67 -18 0.34 -18 0 C-11.84098757 -1.23180249 -6.21324498 -0.73030908 0 0 Z " fill="#20CB7B" transform="translate(485,782)"/>
<path d="M0 0 C0.33 0.66 0.66 1.32 1 2 C0.15856829 4.17369859 -0.68345677 5.6978451 -2.375 7.3125 C-4.84597413 9.87851159 -6.29272214 12.87980254 -8 16 C-8.33 15.01 -8.66 14.02 -9 13 C-7.63671875 10.37109375 -7.63671875 10.37109375 -5.6875 7.4375 C-5.05199219 6.46683594 -4.41648437 5.49617188 -3.76171875 4.49609375 C-2 2 -2 2 0 0 Z " fill="#2CF0AE" transform="translate(452,376)"/>
<path d="M0 0 C2.60045875 2.3024119 3.84739183 4.49896677 5.1875 7.6875 C5.53167969 8.49574219 5.87585938 9.30398438 6.23046875 10.13671875 C6.48441406 10.75160156 6.73835937 11.36648438 7 12 C5.1875 13.0625 5.1875 13.0625 3 14 C2.01 13.67 1.02 13.34 0 13 C1.32 12.67 2.64 12.34 4 12 C3.566875 10.95199219 3.566875 10.95199219 3.125 9.8828125 C2.75375 8.97273438 2.3825 8.06265625 2 7.125 C1.62875 6.22007812 1.2575 5.31515625 0.875 4.3828125 C0 2 0 2 0 0 Z " fill="#2CEEAA" transform="translate(582,388)"/>
<path d="M0 0 C1.79240663 0.11389875 3.58394835 0.24147687 5.375 0.375 C6.87160156 0.47941406 6.87160156 0.47941406 8.3984375 0.5859375 C11 1 11 1 13 3 C11.58344207 3.0272415 10.16672955 3.04650467 8.75 3.0625 C7.56664062 3.07990234 7.56664062 3.07990234 6.359375 3.09765625 C4.09308998 3.00385306 2.1711105 2.63241063 0 2 C0 1.34 0 0.68 0 0 Z " fill="#1EC071" transform="translate(436,775)"/>
<path d="M0 0 C0.66 0.33 1.32 0.66 2 1 C-0.77762123 4.60062011 -3.73991357 7.83047153 -7 11 C-6.85969405 7.98342209 -6.70648535 5.76158727 -4.59765625 3.48828125 C-3.11095765 2.26743934 -1.55865102 1.12753478 0 0 Z " fill="#023C1F" transform="translate(382,325)"/>
<path d="M0 0 C3.47775179 1.51553404 5.9557984 3.5773456 8.75 6.125 C9.94882812 7.21167969 9.94882812 7.21167969 11.171875 8.3203125 C11.77515625 8.87460937 12.3784375 9.42890625 13 10 C12.67 10.66 12.34 11.32 12 12 C7.57905197 8.27653164 3.42166518 4.70478962 0 0 Z " fill="#2AE7A6" transform="translate(643,326)"/>
<path d="M0 0 C4.455 0.99 4.455 0.99 9 2 C9 2.66 9 3.32 9 4 C9.66 4.33 10.32 4.66 11 5 C10.01 5.495 10.01 5.495 9 6 C6.8359375 5.00390625 6.8359375 5.00390625 4.375 3.5625 C3.55773437 3.08941406 2.74046875 2.61632812 1.8984375 2.12890625 C1.27195312 1.75636719 0.64546875 1.38382812 0 1 C0 0.67 0 0.34 0 0 Z " fill="#29E9A1" transform="translate(595,296)"/>
<path d="M0 0 C0 3.75366417 -1.11420063 5.78715662 -3 9 C-3.99 9.33 -4.98 9.66 -6 10 C-4.6302836 6.00499382 -2.74277578 3.19990508 0 0 Z " fill="#012C14" transform="translate(348,361)"/>
<path d="M0 0 C1.32 0 2.64 0 4 0 C4 0.66 4 1.32 4 2 C5.65 2.33 7.3 2.66 9 3 C9 3.33 9 3.66 9 4 C1.25 3.25 1.25 3.25 -1 1 C-0.67 0.67 -0.34 0.34 0 0 Z " fill="#023518" transform="translate(494,547)"/>
<path d="M0 0 C4.03384128 2.07143201 5.92856799 3.96615872 8 8 C4.63820226 6.55922954 2.40843732 4.75249979 0 2 C0 1.34 0 0.68 0 0 Z " fill="#043A1F" transform="translate(652,336)"/>
<path d="M0 0 C0.99 0.33 1.98 0.66 3 1 C0.69 3.31 -1.62 5.62 -4 8 C-4 4.09161134 -2.49432124 2.88405893 0 0 Z " fill="#1AB96A" transform="translate(275,271)"/>
<path d="M0 0 C1 4 1 4 1 4 Z " fill="#2CCF85" transform="translate(823,537)"/>
<path d="M0 0 C1 4 1 4 1 4 Z " fill="#2ECE84" transform="translate(196,507)"/>
<path d="M0 0 C0.99 0.33 1.98 0.66 3 1 C2.01 1 1.02 1 0 1 C0 0.67 0 0.34 0 0 Z " fill="#29CE85" transform="translate(677,216)"/>
<path d="M0 0 C3 1 3 1 3 1 Z " fill="#2DCF84" transform="translate(596,775)"/>
<path d="M0 0 C3 1 3 1 3 1 Z " fill="#2ACD80" transform="translate(321,725)"/>
<path d="" fill="#2DD084" transform="translate(0,0)"/>
<path d="M0 0 C3 1 3 1 3 1 Z " fill="#29CE84" transform="translate(627,192)"/>
<path d="M0 0 C3 1 3 1 3 1 Z " fill="#29CE83" transform="translate(573,176)"/>
<path d="" fill="#2CCC81" transform="translate(0,0)"/>
<path d="" fill="#2CCB81" transform="translate(0,0)"/>
<path d="" fill="#2BCC81" transform="translate(0,0)"/>
<path d="" fill="#2ECD83" transform="translate(0,0)"/>
<path d="M0 0 C2 1 2 1 2 1 Z " fill="#2DD083" transform="translate(209,573)"/>
<path d="" fill="#2ECF83" transform="translate(0,0)"/>
<path d="" fill="#2DD084" transform="translate(0,0)"/>
<path d="M0 0 C2 1 2 1 2 1 Z " fill="#2BCE85" transform="translate(193,480)"/>
<path d="" fill="#2DD084" transform="translate(0,0)"/>
<path d="" fill="#2DCD83" transform="translate(0,0)"/>
<path d="" fill="#2BCB82" transform="translate(0,0)"/>
<path d="" fill="#2BCF85" transform="translate(0,0)"/>
<path d="M0 0 C2 1 2 1 2 1 Z " fill="#2BCE83" transform="translate(297,248)"/>
<path d="M0 0 C2 1 2 1 2 1 Z " fill="#2BCF84" transform="translate(701,232)"/>
<path d="M0 0 C2 1 2 1 2 1 Z " fill="#2BD085" transform="translate(690,224)"/>
<path d="M0 0 C2 1 2 1 2 1 Z " fill="#2CD185" transform="translate(329,224)"/>
<path d="M0 0 C2 1 2 1 2 1 Z " fill="#2CCE85" transform="translate(662,208)"/>
<path d="M0 0 C2 1 2 1 2 1 Z " fill="#2BCF84" transform="translate(371,200)"/>
<path d="M0 0 C2 1 2 1 2 1 Z " fill="#2BD184" transform="translate(444,176)"/>
<path d="" fill="#536E5A" transform="translate(0,0)"/>
<path d="" fill="#2DCE83" transform="translate(0,0)"/>
<path d="" fill="#2DD083" transform="translate(0,0)"/>
<path d="" fill="#2ED486" transform="translate(0,0)"/>
<path d="" fill="#2AD281" transform="translate(0,0)"/>
<path d="" fill="#2CD384" transform="translate(0,0)"/>
<path d="" fill="#2BD282" transform="translate(0,0)"/>
<path d="" fill="#2BD083" transform="translate(0,0)"/>
<path d="" fill="#2DD083" transform="translate(0,0)"/>
<path d="" fill="#2BCF80" transform="translate(0,0)"/>
<path d="" fill="#2BCF81" transform="translate(0,0)"/>
<path d="" fill="#2BCB81" transform="translate(0,0)"/>
<path d="" fill="#2CCE7F" transform="translate(0,0)"/>
<path d="" fill="#2BCC82" transform="translate(0,0)"/>
<path d="" fill="#2DCE81" transform="translate(0,0)"/>
<path d="" fill="#2BCD82" transform="translate(0,0)"/>
<path d="" fill="#2BCF83" transform="translate(0,0)"/>
<path d="" fill="#2ACC82" transform="translate(0,0)"/>
<path d="" fill="#2CD182" transform="translate(0,0)"/>
<path d="" fill="#2ACF85" transform="translate(0,0)"/>
<path d="" fill="#2CCE81" transform="translate(0,0)"/>
<path d="" fill="#2CCD82" transform="translate(0,0)"/>
<path d="" fill="#2FCD80" transform="translate(0,0)"/>
<path d="" fill="#2CCB82" transform="translate(0,0)"/>
<path d="" fill="#2ACD81" transform="translate(0,0)"/>
<path d="" fill="#2DCF83" transform="translate(0,0)"/>
<path d="" fill="#2FCA81" transform="translate(0,0)"/>
<path d="" fill="#2ECB81" transform="translate(0,0)"/>
<path d="" fill="#2DD18A" transform="translate(0,0)"/>
<path d="" fill="#2ECC82" transform="translate(0,0)"/>
<path d="" fill="#2BCF81" transform="translate(0,0)"/>
<path d="" fill="#2BCC80" transform="translate(0,0)"/>
<path d="" fill="#2ECF82" transform="translate(0,0)"/>
<path d="" fill="#2DCF81" transform="translate(0,0)"/>
<path d="" fill="#2ECE83" transform="translate(0,0)"/>
<path d="" fill="#2ECF84" transform="translate(0,0)"/>
<path d="" fill="#2CCE83" transform="translate(0,0)"/>
<path d="" fill="#2BD084" transform="translate(0,0)"/>
<path d="" fill="#2FCD84" transform="translate(0,0)"/>
<path d="" fill="#2CD081" transform="translate(0,0)"/>
<path d="" fill="#29CB80" transform="translate(0,0)"/>
<path d="" fill="#29CB82" transform="translate(0,0)"/>
<path d="" fill="#2BCC82" transform="translate(0,0)"/>
<path d="" fill="#2CCE83" transform="translate(0,0)"/>
<path d="" fill="#2CCD82" transform="translate(0,0)"/>
<path d="" fill="#2BCD84" transform="translate(0,0)"/>
<path d="" fill="#30CB82" transform="translate(0,0)"/>
<path d="" fill="#2FD385" transform="translate(0,0)"/>
<path d="" fill="#2BCF84" transform="translate(0,0)"/>
<path d="" fill="#2BD185" transform="translate(0,0)"/>
<path d="" fill="#2BCD82" transform="translate(0,0)"/>
<path d="" fill="#2BCE86" transform="translate(0,0)"/>
<path d="" fill="#2DD084" transform="translate(0,0)"/>
<path d="" fill="#30CD83" transform="translate(0,0)"/>
<path d="" fill="#30CC83" transform="translate(0,0)"/>
<path d="" fill="#2ECC83" transform="translate(0,0)"/>
<path d="" fill="#2FCF85" transform="translate(0,0)"/>
<path d="" fill="#2FD184" transform="translate(0,0)"/>
<path d="" fill="#2DCE85" transform="translate(0,0)"/>
<path d="" fill="#2DCE83" transform="translate(0,0)"/>
<path d="" fill="#2CD082" transform="translate(0,0)"/>
<path d="" fill="#2BCE82" transform="translate(0,0)"/>
<path d="" fill="#2ECF86" transform="translate(0,0)"/>
<path d="" fill="#2ECF85" transform="translate(0,0)"/>
<path d="" fill="#2FCF84" transform="translate(0,0)"/>
<path d="" fill="#2CCF83" transform="translate(0,0)"/>
<path d="" fill="#2DD084" transform="translate(0,0)"/>
<path d="" fill="#2DCF85" transform="translate(0,0)"/>
<path d="" fill="#2DCE85" transform="translate(0,0)"/>
<path d="" fill="#2ACF82" transform="translate(0,0)"/>
<path d="" fill="#2BCE83" transform="translate(0,0)"/>
<path d="" fill="#2ECE84" transform="translate(0,0)"/>
<path d="" fill="#2CCD82" transform="translate(0,0)"/>
<path d="" fill="#2FCC82" transform="translate(0,0)"/>
<path d="" fill="#2CCE83" transform="translate(0,0)"/>
<path d="" fill="#2DD185" transform="translate(0,0)"/>
<path d="" fill="#2DCF85" transform="translate(0,0)"/>
<path d="" fill="#2DCF82" transform="translate(0,0)"/>
<path d="" fill="#2DD083" transform="translate(0,0)"/>
<path d="" fill="#2ED286" transform="translate(0,0)"/>
<path d="" fill="#2ECE82" transform="translate(0,0)"/>
<path d="" fill="#2ECE85" transform="translate(0,0)"/>
<path d="" fill="#2ACE81" transform="translate(0,0)"/>
<path d="" fill="#30D085" transform="translate(0,0)"/>
<path d="" fill="#2CD088" transform="translate(0,0)"/>
<path d="" fill="#2DCC83" transform="translate(0,0)"/>
<path d="" fill="#2DCF84" transform="translate(0,0)"/>
<path d="" fill="#2DCE86" transform="translate(0,0)"/>
<path d="" fill="#2CD285" transform="translate(0,0)"/>
<path d="" fill="#2DCF85" transform="translate(0,0)"/>
<path d="" fill="#2FD084" transform="translate(0,0)"/>
<path d="" fill="#2BD183" transform="translate(0,0)"/>
<path d="" fill="#2CCE86" transform="translate(0,0)"/>
<path d="" fill="#29CF85" transform="translate(0,0)"/>
<path d="" fill="#2ACB82" transform="translate(0,0)"/>
<path d="" fill="#2BCC83" transform="translate(0,0)"/>
<path d="" fill="#2BCE80" transform="translate(0,0)"/>
<path d="" fill="#2FCD84" transform="translate(0,0)"/>
<path d="" fill="#2CD084" transform="translate(0,0)"/>
<path d="" fill="#2DD086" transform="translate(0,0)"/>
<path d="" fill="#2DCF86" transform="translate(0,0)"/>
<path d="" fill="#2ACC82" transform="translate(0,0)"/>
<path d="" fill="#28CF85" transform="translate(0,0)"/>
<path d="" fill="#2BD084" transform="translate(0,0)"/>
<path d="" fill="#28CF84" transform="translate(0,0)"/>
<path d="" fill="#2ECD82" transform="translate(0,0)"/>
<path d="" fill="#2CD082" transform="translate(0,0)"/>
<path d="" fill="#2ED084" transform="translate(0,0)"/>
<path d="" fill="#2DCF86" transform="translate(0,0)"/>
<path d="" fill="#28D085" transform="translate(0,0)"/>
<path d="" fill="#28D083" transform="translate(0,0)"/>
<path d="" fill="#2ACF86" transform="translate(0,0)"/>
<path d="" fill="#2ACF82" transform="translate(0,0)"/>
<path d="" fill="#28CE83" transform="translate(0,0)"/>
<path d="" fill="#2BCF82" transform="translate(0,0)"/>
<path d="" fill="#2DD084" transform="translate(0,0)"/>
<path d="" fill="#2CD184" transform="translate(0,0)"/>
<path d="" fill="#2BD186" transform="translate(0,0)"/>
<path d="" fill="#2DCF83" transform="translate(0,0)"/>
<path d="" fill="#2ACE85" transform="translate(0,0)"/>
<path d="" fill="#2AD284" transform="translate(0,0)"/>
<path d="" fill="#2BD085" transform="translate(0,0)"/>
<path d="" fill="#2CD085" transform="translate(0,0)"/>
<path d="" fill="#28CD84" transform="translate(0,0)"/>
<path d="" fill="#2BD184" transform="translate(0,0)"/>
<path d="" fill="#2AD283" transform="translate(0,0)"/>
<path d="" fill="#2BD386" transform="translate(0,0)"/>
<path d="" fill="#2BCF84" transform="translate(0,0)"/>
<path d="" fill="#2DD184" transform="translate(0,0)"/>
<path d="" fill="#2BD083" transform="translate(0,0)"/>
<path d="" fill="#2CD086" transform="translate(0,0)"/>
</svg>
